# xmcd CD database file
#
# Track frame offsets:
#	150
#	38869
#	77598
#	114386
#	144421
#	173530
#	208472
#	243547
#	278830
#	317819
#
# Disc length: 4692 seconds
#
# Revision: 0
# Processed by: cddbd v1.5.2PL0 Copyright (c) Steve Scherf et al.
# Submitted via: CDex 1.70beta2
#
DISCID=8a12520a
DTITLE=Various Artist - Yoga and Meditation - CD3
DYEAR=2012
DGENRE=New Age
TTITLE0=Beyond Bombay - Adagio
TTITLE1=Hanndi - Peaceful Dawn
TTITLE2=Orient Expression - Tranquility
TTITLE3=Karma Soundz - Singerella
TTITLE4=Prem Gulshan - Relax
TTITLE5=Hanndi - Luminosity
TTITLE6=Akash Asher - Distant Memories
TTITLE7=Akash Asher - Affirmation
TTITLE8=Saffron Sounds - Pulse
TTITLE9=Salaam Soundclash - Heartbeat
EXTD=YEAR: 2012
EXTT0=
EXTT1=
EXTT2=
EXTT3=
EXTT4=
EXTT5=
EXTT6=
EXTT7=
EXTT8=
EXTT9=
PLAYORDER=
